# xmcd
#
# Track frame offsets: 
#        150
#        22764
#        39618
#        51440
#        67665
#        78933
#        88362
#        106961
#        120314
#        140841
#
# Disc length: 2144 seconds
#
# Revision: 0
# Processed by: cddbd v1.5.2PL0 Copyright (c) Steve Scherf et al.
# Submitted via: ExactAudioCopy v0.99pb3
#
DISCID=7d085e0a
DTITLE=Taxi Taxi! - Still Standing At Your Back Door
DYEAR=2009
DGENRE=Fierce Panda
TTITLE0=Still Standing At Your Back Door
TTITLE1=More Childish Than In A Long Time
TTITLE2=Old Big Trees
TTITLE3=Same Side Of The Moon
TTITLE4=All I Think Of
TTITLE5=His Heart Or Mine
TTITLE6=While I Hold On To The Cliff
TTITLE7=Ripest Fruit
TTITLE8=Birdful Eyes
TTITLE9=Mary
EXTD=
EXTT0=
EXTT1=
EXTT2=
EXTT3=
EXTT4=
EXTT5=
EXTT6=
EXTT7=
EXTT8=
EXTT9=
PLAYORDER=
